<svg xmlns="http://www.w3.org/2000/svg" viewBox="0 0 256 256">
  <g fill="none" stroke="#0E3554" stroke-width="10" stroke-linecap="round" stroke-linejoin="round">
    <circle cx="128" cy="92" r="62"/>
    <path d="M84 114c18-32 42-52 44-54"/>
    <path d="M128 60c6 16 8 38 8 64"/>
    <path d="M130 70c10-6 24-10 38-10"/>
    <path d="M130 76c14 2 28 8 40 18"/>
    <path d="M126 74c-12-8-24-12-38-14"/>
    <path d="M124 78c-18 6-30 18-38 30"/>
    <path d="M122 126c8 18 14 34 16 50"/>
    <path d="M52 150c26-4 54-6 84-6 32 0 54 2 84 6"/>
    <path d="M66 166c18 8 36 12 62 12 26 0 46-6 62-18"/>
  </g>
</svg>
